#N canvas 1132 29 786 1169 10;
#X obj 137 155 snapshot~;
#X obj 151 132 metro 100;
#X obj 157 110 bng 15 250 50 0 empty empty empty 17 7 0 10 -262144
-1 -1;
#X floatatom 139 187 5 0 0 0 - - -, f 5;
#X obj 192 180 max;
#X floatatom 193 215 5 0 0 0 - - -, f 5;
#X text 108 67 diagnostic tools;
#X text 60 155 inlet ->;
#X text 241 216 <- finds max value coming out of input;
#X connect 0 0 3 0;
#X connect 1 0 0 0;
#X connect 2 0 1 0;
#X connect 3 0 4 0;
#X connect 4 0 5 0;
#X connect 5 0 4 1;
