#N canvas 0 665 478 533 10;
#X msg 110 29 listen 0;
#X msg 61 53 listen 1119;
#X obj 55 81 netreceive 1119;
#X obj 21 428 mtof;
#X floatatom 30 453 5 0 0 0 - - -, f 5;
#X obj 61 10 loadbang;
#X obj 20 545 /~;
#X obj 64 531 r nc;
#X obj 62 569 r lcv;
#X obj 14 573 r rcv;
#X text 535 154 lcv: left channel volume rcv: right channel volume
nc: number of channels;
#X obj 54 597 *~;
#X obj -3 598 *~;
#X obj 78 31 bng 15 250 50 0 empty empty empty 17 7 0 10 -262144 -1
-1;
#X obj 248 64 s rcv;
#X obj 199 64 s lcv;
#X obj 291 45 s nc;
#X obj 21 379 +;
#X obj 79 237 s a1;
#X obj 103 214 s a2;
#X obj 127 191 s a3;
#X obj 53 257 s a0;
#X obj 153 259 s a4;
#X obj 177 237 s a5;
#X obj 202 214 s a6;
#X obj 225 191 s a7;
#X obj 253 259 s a8;
#X obj 277 237 s a9;
#X obj 301 214 s a10;
#X obj 326 191 s a11;
#X obj 18 522 *~;
#X floatatom 827 87 5 0 0 0 - - -, f 5;
#X obj 826 17 loadbang;
#X obj 134 427 mtof;
#X floatatom 134 468 5 0 0 0 - - -, f 5;
#X obj 111 500 osc~;
#X obj 134 556 /~;
#X obj 168 526 r nc;
#X obj 164 587 r lcv;
#X obj 107 588 r rcv;
#X obj 164 615 *~;
#X obj 107 616 *~;
#X obj 134 387 +;
#X obj 134 528 *~;
#X obj 243 415 mtof;
#X floatatom 243 468 5 0 0 0 - - -, f 5;
#X obj 220 500 osc~;
#X obj 243 556 /~;
#X obj 277 526 r nc;
#X obj 273 587 r lcv;
#X obj 216 588 r rcv;
#X obj 273 615 *~;
#X obj 216 616 *~;
#X obj 243 387 +;
#X obj 243 528 *~;
#X obj 352 416 mtof;
#X floatatom 352 469 5 0 0 0 - - -, f 5;
#X obj 329 501 osc~;
#X obj 352 557 /~;
#X obj 386 527 r nc;
#X obj 382 588 r lcv;
#X obj 325 589 r rcv;
#X obj 382 616 *~;
#X obj 325 617 *~;
#X obj 352 388 +;
#X obj 352 529 *~;
#X obj 464 415 mtof;
#X floatatom 464 468 5 0 0 0 - - -, f 5;
#X obj 441 500 osc~;
#X obj 464 556 /~;
#X obj 498 526 r nc;
#X obj 494 587 r lcv;
#X obj 437 588 r rcv;
#X obj 494 615 *~;
#X obj 437 616 *~;
#X obj 464 387 +;
#X obj 464 528 *~;
#X obj 573 415 mtof;
#X floatatom 573 468 5 0 0 0 - - -, f 5;
#X obj 550 500 osc~;
#X obj 573 556 /~;
#X obj 607 526 r nc;
#X obj 603 587 r lcv;
#X obj 546 588 r rcv;
#X obj 603 615 *~;
#X obj 546 616 *~;
#X obj 573 387 +;
#X obj 573 528 *~;
#X obj 291 299 loadbang;
#X obj 709 414 mtof;
#X floatatom 709 467 5 0 0 0 - - -, f 5;
#X obj 686 499 osc~;
#X obj 709 555 /~;
#X obj 743 525 r nc;
#X obj 739 586 r lcv;
#X obj 682 587 r rcv;
#X obj 739 614 *~;
#X obj 682 615 *~;
#X obj 709 386 +;
#X obj 709 527 *~;
#X obj 821 413 mtof;
#X floatatom 821 466 5 0 0 0 - - -, f 5;
#X obj 798 498 osc~;
#X obj 821 554 /~;
#X obj 855 524 r nc;
#X obj 851 585 r lcv;
#X obj 794 586 r rcv;
#X obj 851 613 *~;
#X obj 794 614 *~;
#X obj 821 385 +;
#X obj 821 526 *~;
#X obj 930 413 mtof;
#X floatatom 930 466 5 0 0 0 - - -, f 5;
#X obj 907 498 osc~;
#X obj 930 554 /~;
#X obj 964 524 r nc;
#X obj 960 585 r lcv;
#X obj 903 586 r rcv;
#X obj 960 613 *~;
#X obj 903 614 *~;
#X obj 930 385 +;
#X obj 930 526 *~;
#X obj 1039 414 mtof;
#X floatatom 1039 467 5 0 0 0 - - -, f 5;
#X obj 1016 499 osc~;
#X obj 1039 555 /~;
#X obj 1073 525 r nc;
#X obj 1069 586 r lcv;
#X obj 1012 587 r rcv;
#X obj 1069 614 *~;
#X obj 1012 615 *~;
#X obj 1039 386 +;
#X obj 1039 527 *~;
#X obj 1151 413 mtof;
#X floatatom 1151 466 5 0 0 0 - - -, f 5;
#X obj 1128 498 osc~;
#X obj 1151 554 /~;
#X obj 1185 524 r nc;
#X obj 1181 585 r lcv;
#X obj 1124 586 r rcv;
#X obj 1181 613 *~;
#X obj 1124 614 *~;
#X obj 1151 385 +;
#X obj 1151 526 *~;
#X obj 1260 413 mtof;
#X floatatom 1260 466 5 0 0 0 - - -, f 5;
#X obj 1237 498 osc~;
#X obj 1260 554 /~;
#X obj 1294 524 r nc;
#X obj 1290 585 r lcv;
#X obj 1233 586 r rcv;
#X obj 1290 613 *~;
#X obj 1233 614 *~;
#X obj 1260 385 +;
#X obj 1260 526 *~;
#X obj 973 299 loadbang;
#X obj 75 452 r a0;
#X obj 189 448 r a1;
#X obj 270 500 r a2;
#X obj 381 501 r a3;
#X obj 491 500 r a4;
#X obj 600 500 r a5;
#X obj 736 499 r a6;
#X obj 848 498 r a7;
#X obj 957 498 r a8;
#X obj 1067 499 r a9;
#X obj 1178 498 r a10;
#X obj 1287 498 r a11;
#X obj 54 112 route a0 a1 a2 a3 a4 a5 a6 a7 a8 a9 a10 a11 lcv rcv nc
;
#X floatatom 205 43 5 0 0 0 - - -, f 5;
#X floatatom 219 22 5 0 0 0 - - -, f 5;
#X floatatom 272 20 5 0 0 0 - - -, f 5;
#X floatatom 54 209 5 0 0 0 - - -, f 5;
#X floatatom 79 186 5 0 0 0 - - -, f 5;
#X floatatom 103 163 5 0 0 0 - - -, f 5;
#X floatatom 128 145 5 0 0 0 - - -, f 5;
#X floatatom 152 219 5 0 0 0 - - -, f 5;
#X floatatom 179 195 5 0 0 0 - - -, f 5;
#X floatatom 203 169 5 0 0 0 - - -, f 5;
#X floatatom 226 147 5 0 0 0 - - -, f 5;
#X floatatom 254 217 5 0 0 0 - - -, f 5;
#X floatatom 277 194 5 0 0 0 - - -, f 5;
#X floatatom 302 173 5 0 0 0 - - -, f 5;
#X floatatom 327 148 5 0 0 0 - - -, f 5;
#X obj 21 838 dac~;
#X floatatom 65 477 5 0 0 0 - - -, f 5;
#X obj 10 148 bng 15 250 50 0 empty empty empty 17 7 0 10 -262144 -1
-1;
#X obj -12 187 s pb;
#X obj 129 841 dac~;
#X obj 238 837 dac~;
#X obj 353 835 dac~;
#X obj 449 838 dac~;
#X obj 564 836 dac~;
#X obj 708 831 dac~;
#X obj 823 829 dac~;
#X obj 932 825 dac~;
#X obj 1047 823 dac~;
#X obj 1143 826 dac~;
#X obj 1258 824 dac~;
#X msg 827 51 57;
#X msg 117 358 2;
#X msg 225 359 4;
#X floatatom 913 89 5 0 0 0 - - -, f 5;
#X obj 912 18 loadbang;
#X msg 912 52 57;
#X obj 912 120 s offset_r;
#X obj 35 292 r offset_l;
#X obj 152 356 r offset_l;
#X obj 256 358 r offset_l;
#X obj 363 359 r offset_l;
#X obj 472 358 r offset_l;
#X obj 587 358 r offset_l;
#X obj 236 301 bng 15 250 50 0 empty empty empty 17 7 0 10 -262144
-1 -1;
#X obj 909 303 bng 15 250 50 0 empty empty empty 17 7 0 10 -262144
-1 -1;
#X obj 717 357 r offset_r;
#X obj 829 357 r offset_r;
#X obj 936 358 r offset_r;
#X obj 1052 357 r offset_r;
#X obj 1158 357 r offset_r;
#X obj 1273 356 r offset_r;
#X msg 329 358 5;
#X msg 439 359 7;
#X msg 549 359 11;
#X msg 684 358 12;
#X msg 799 359 14;
#X msg 905 356 16;
#X msg 1015 357 17;
#X msg 1127 357 19;
#X msg 1236 356 23;
#X floatatom 36 324 5 0 0 0 - - -, f 5;
#X msg 47 352;
#X obj 826 119 s offset_l;
#X obj 344 29 hsl 128 15 0 1 0 0 empty empty empty -2 -8 0 10 -262144
-1 -1 11646 1;
#X obj 343 56 hsl 128 15 0 1 0 0 empty empty empty -2 -8 0 10 -262144
-1 -1 2121 1;
#X obj 50 506 * 0.1;
#X obj 606 37 metro 100;
#X obj 622 86 snapshot~;
#X floatatom 632 121 5 0 0 0 - - -, f 5;
#X floatatom 21 407 5 0 0 0 - - -, f 5;
#X obj 618 66 bng 15 250 50 0 empty empty empty 17 7 0 10 -262144 -1
-1;
#X obj 774 98 s nc;
#X msg 778 51 12;
#X msg -5 354 0;
#X text 586 12 debugging snapshot land;
#X obj 1154 49 osc~ 440;
#X obj 1153 106 dac~;
#X obj 0 75 print;
#X obj 3 497 osc~;
#X floatatom 189 470 5 0 0 0 - - -, f 5;
#X obj 1048 960 t f f;
#X connect 0 0 2 0;
#X connect 0 0 246 0;
#X connect 1 0 2 0;
#X connect 1 0 246 0;
#X connect 2 0 168 0;
#X connect 3 0 4 0;
#X connect 4 0 247 0;
#X connect 5 0 1 0;
#X connect 6 0 11 0;
#X connect 6 0 12 0;
#X connect 7 0 6 1;
#X connect 8 0 11 1;
#X connect 9 0 12 1;
#X connect 11 0 184 1;
#X connect 12 0 184 0;
#X connect 13 0 1 0;
#X connect 17 0 238 0;
#X connect 30 0 6 0;
#X connect 31 0 231 0;
#X connect 32 0 199 0;
#X connect 33 0 34 0;
#X connect 34 0 35 0;
#X connect 35 0 43 0;
#X connect 36 0 40 0;
#X connect 36 0 41 0;
#X connect 37 0 36 1;
#X connect 38 0 40 1;
#X connect 39 0 41 1;
#X connect 40 0 188 1;
#X connect 41 0 188 0;
#X connect 42 0 33 0;
#X connect 43 0 36 0;
#X connect 44 0 45 0;
#X connect 45 0 46 0;
#X connect 46 0 54 0;
#X connect 47 0 51 0;
#X connect 47 0 52 0;
#X connect 48 0 47 1;
#X connect 49 0 51 1;
#X connect 50 0 52 1;
#X connect 51 0 189 1;
#X connect 52 0 189 0;
#X connect 53 0 44 0;
#X connect 54 0 47 0;
#X connect 55 0 56 0;
#X connect 56 0 57 0;
#X connect 57 0 65 0;
#X connect 58 0 62 0;
#X connect 58 0 63 0;
#X connect 59 0 58 1;
#X connect 60 0 62 1;
#X connect 61 0 63 1;
#X connect 62 0 190 1;
#X connect 63 0 190 0;
#X connect 64 0 55 0;
#X connect 65 0 58 0;
#X connect 66 0 67 0;
#X connect 67 0 68 0;
#X connect 68 0 76 0;
#X connect 69 0 73 0;
#X connect 69 0 74 0;
#X connect 70 0 69 1;
#X connect 71 0 73 1;
#X connect 72 0 74 1;
#X connect 73 0 191 1;
#X connect 74 0 191 0;
#X connect 75 0 66 0;
#X connect 76 0 69 0;
#X connect 77 0 78 0;
#X connect 78 0 79 0;
#X connect 79 0 87 0;
#X connect 80 0 84 0;
#X connect 80 0 85 0;
#X connect 81 0 80 1;
#X connect 82 0 84 1;
#X connect 83 0 85 1;
#X connect 84 0 192 1;
#X connect 85 0 192 0;
#X connect 86 0 77 0;
#X connect 87 0 80 0;
#X connect 88 0 242 0;
#X connect 88 0 200 0;
#X connect 88 0 201 0;
#X connect 88 0 220 0;
#X connect 88 0 221 0;
#X connect 88 0 222 0;
#X connect 88 0 212 0;
#X connect 89 0 90 0;
#X connect 90 0 91 0;
#X connect 91 0 99 0;
#X connect 92 0 96 0;
#X connect 92 0 97 0;
#X connect 93 0 92 1;
#X connect 94 0 96 1;
#X connect 95 0 97 1;
#X connect 96 0 193 1;
#X connect 97 0 193 0;
#X connect 98 0 89 0;
#X connect 99 0 92 0;
#X connect 100 0 101 0;
#X connect 101 0 102 0;
#X connect 102 0 110 0;
#X connect 103 0 107 0;
#X connect 103 0 108 0;
#X connect 104 0 103 1;
#X connect 105 0 107 1;
#X connect 106 0 108 1;
#X connect 107 0 194 1;
#X connect 108 0 194 0;
#X connect 109 0 100 0;
#X connect 110 0 103 0;
#X connect 111 0 112 0;
#X connect 112 0 113 0;
#X connect 113 0 121 0;
#X connect 114 0 118 0;
#X connect 114 0 119 0;
#X connect 115 0 114 1;
#X connect 116 0 118 1;
#X connect 117 0 119 1;
#X connect 118 0 195 1;
#X connect 119 0 195 0;
#X connect 120 0 111 0;
#X connect 121 0 114 0;
#X connect 122 0 123 0;
#X connect 123 0 124 0;
#X connect 124 0 132 0;
#X connect 125 0 129 0;
#X connect 125 0 130 0;
#X connect 126 0 125 1;
#X connect 127 0 129 1;
#X connect 128 0 130 1;
#X connect 129 0 196 1;
#X connect 130 0 196 0;
#X connect 131 0 122 0;
#X connect 132 0 125 0;
#X connect 133 0 134 0;
#X connect 134 0 135 0;
#X connect 135 0 143 0;
#X connect 136 0 140 0;
#X connect 136 0 141 0;
#X connect 137 0 136 1;
#X connect 138 0 140 1;
#X connect 139 0 141 1;
#X connect 140 0 197 1;
#X connect 141 0 197 0;
#X connect 142 0 133 0;
#X connect 143 0 136 0;
#X connect 144 0 145 0;
#X connect 145 0 146 0;
#X connect 146 0 154 0;
#X connect 147 0 151 0;
#X connect 147 0 152 0;
#X connect 148 0 147 1;
#X connect 149 0 151 1;
#X connect 150 0 152 1;
#X connect 151 0 198 1;
#X connect 152 0 198 0;
#X connect 153 0 144 0;
#X connect 154 0 147 0;
#X connect 155 0 223 0;
#X connect 155 0 224 0;
#X connect 155 0 225 0;
#X connect 155 0 226 0;
#X connect 155 0 227 0;
#X connect 155 0 228 0;
#X connect 155 0 213 0;
#X connect 156 0 185 0;
#X connect 157 0 248 0;
#X connect 158 0 54 1;
#X connect 159 0 65 1;
#X connect 160 0 76 1;
#X connect 161 0 87 1;
#X connect 162 0 99 1;
#X connect 163 0 110 1;
#X connect 164 0 121 1;
#X connect 165 0 132 1;
#X connect 166 0 143 1;
#X connect 167 0 154 1;
#X connect 168 0 172 0;
#X connect 168 0 186 0;
#X connect 168 1 173 0;
#X connect 168 2 174 0;
#X connect 168 3 175 0;
#X connect 168 4 176 0;
#X connect 168 5 177 0;
#X connect 168 6 178 0;
#X connect 168 7 179 0;
#X connect 168 8 180 0;
#X connect 168 9 181 0;
#X connect 168 10 182 0;
#X connect 168 11 183 0;
#X connect 168 12 169 0;
#X connect 168 13 170 0;
#X connect 169 0 15 0;
#X connect 169 0 233 0;
#X connect 170 0 14 0;
#X connect 170 0 232 0;
#X connect 171 0 16 0;
#X connect 172 0 21 0;
#X connect 173 0 18 0;
#X connect 174 0 19 0;
#X connect 175 0 20 0;
#X connect 176 0 22 0;
#X connect 177 0 23 0;
#X connect 178 0 24 0;
#X connect 179 0 25 0;
#X connect 180 0 26 0;
#X connect 181 0 27 0;
#X connect 182 0 28 0;
#X connect 183 0 29 0;
#X connect 185 0 234 1;
#X connect 186 0 187 0;
#X connect 199 0 31 0;
#X connect 200 0 42 0;
#X connect 201 0 53 0;
#X connect 202 0 205 0;
#X connect 203 0 204 0;
#X connect 204 0 202 0;
#X connect 206 0 229 0;
#X connect 207 0 42 1;
#X connect 208 0 53 1;
#X connect 209 0 64 1;
#X connect 210 0 75 1;
#X connect 211 0 86 1;
#X connect 212 0 242 0;
#X connect 212 0 200 0;
#X connect 212 0 201 0;
#X connect 212 0 220 0;
#X connect 212 0 221 0;
#X connect 212 0 222 0;
#X connect 213 0 223 0;
#X connect 213 0 224 0;
#X connect 213 0 225 0;
#X connect 213 0 226 0;
#X connect 213 0 227 0;
#X connect 213 0 228 0;
#X connect 214 0 98 1;
#X connect 215 0 109 1;
#X connect 216 0 120 1;
#X connect 217 0 131 1;
#X connect 218 0 142 1;
#X connect 219 0 153 1;
#X connect 220 0 64 0;
#X connect 221 0 75 0;
#X connect 222 0 86 0;
#X connect 223 0 98 0;
#X connect 224 0 109 0;
#X connect 225 0 120 0;
#X connect 226 0 131 0;
#X connect 227 0 142 0;
#X connect 228 0 153 0;
#X connect 229 0 230 0;
#X connect 230 0 17 1;
#X connect 234 0 30 1;
#X connect 235 0 239 0;
#X connect 236 0 237 0;
#X connect 238 0 3 0;
#X connect 239 0 236 0;
#X connect 241 0 240 0;
#X connect 242 0 17 0;
#X connect 247 0 30 0;
#X connect 248 0 43 1;
