#N canvas 960 29 958 1169 10;
#X msg 110 29 listen 0;
#X msg 61 53 listen 1119;
#X obj 55 81 netreceive 1119;
#X obj 21 428 mtof;
#X floatatom 6 462 5 0 0 0 - - -, f 5;
#X obj 61 10 loadbang;
#X obj 20 545 /~;
#X obj 60 527 r nc;
#X obj 62 569 r lcv;
#X obj 14 573 r rcv;
#X text 535 154 lcv: left channel volume rcv: right channel volume
nc: number of channels;
#X obj 51 604 *~;
#X obj -6 605 *~;
#X obj 78 31 bng 15 250 50 0 empty empty empty 17 7 0 10 -262144 -1
-1;
#X obj 248 64 s rcv;
#X obj 199 64 s lcv;
#X obj 291 45 s nc;
#X obj 21 379 +;
#X obj 79 237 s a1;
#X obj 103 214 s a2;
#X obj 127 191 s a3;
#X obj 53 257 s a0;
#X obj 153 259 s a4;
#X obj 177 237 s a5;
#X obj 202 214 s a6;
#X obj 225 191 s a7;
#X obj 253 259 s a8;
#X obj 277 237 s a9;
#X obj 301 214 s a10;
#X obj 326 191 s a11;
#X obj 18 522 *~;
#X floatatom 827 91 5 0 0 0 - - -, f 5;
#X obj 838 13 loadbang;
#X obj 291 299 loadbang;
#X obj 971 262 loadbang;
#X obj 69 413 r a0;
#X obj 54 112 route a0 a1 a2 a3 a4 a5 a6 a7 a8 a9 a10 a11 lcv rcv nc
;
#X floatatom 205 43 5 0 0 0 - - -, f 5;
#X floatatom 219 22 5 0 0 0 - - -, f 5;
#X floatatom 272 20 5 0 0 0 - - -, f 5;
#X floatatom 54 209 5 0 0 0 - - -, f 5;
#X floatatom 79 186 5 0 0 0 - - -, f 5;
#X floatatom 103 163 5 0 0 0 - - -, f 5;
#X floatatom 128 145 5 0 0 0 - - -, f 5;
#X floatatom 152 219 5 0 0 0 - - -, f 5;
#X floatatom 179 195 5 0 0 0 - - -, f 5;
#X floatatom 203 169 5 0 0 0 - - -, f 5;
#X floatatom 226 147 5 0 0 0 - - -, f 5;
#X floatatom 254 217 5 0 0 0 - - -, f 5;
#X floatatom 277 194 5 0 0 0 - - -, f 5;
#X floatatom 302 173 5 0 0 0 - - -, f 5;
#X floatatom 327 148 5 0 0 0 - - -, f 5;
#X obj 21 838 dac~;
#X floatatom 59 438 5 0 0 0 - - -, f 5;
#X obj 10 148 bng 15 250 50 0 empty empty empty 17 7 0 10 -262144 -1
-1;
#X obj -12 187 s pb;
#X msg 827 51 57;
#X floatatom 911 85 5 0 0 0 - - -, f 5;
#X msg 912 52 57;
#X obj 912 120 s offset_r;
#X obj 40 327 r offset_l;
#X obj 151 328 r offset_l;
#X obj 255 329 r offset_l;
#X obj 366 328 r offset_l;
#X obj 469 328 r offset_l;
#X obj 582 324 r offset_l;
#X obj 230 286 bng 15 250 50 0 empty empty empty 17 7 0 10 -262144
-1 -1;
#X obj 907 266 bng 15 250 50 0 empty empty empty 17 7 0 10 -262144
-1 -1;
#X obj 712 322 r offset_r;
#X obj 824 322 r offset_r;
#X obj 931 323 r offset_r;
#X obj 1047 322 r offset_r;
#X obj 1153 322 r offset_r;
#X obj 1268 321 r offset_r;
#X floatatom 42 356 5 0 0 0 - - -, f 5;
#X obj 826 119 s offset_l;
#X obj 344 29 hsl 128 15 0 1 0 0 empty empty empty -2 -8 0 10 -262144
-1 -1 1411 1;
#X obj 343 56 hsl 128 15 0 1 0 0 empty empty empty -2 -8 0 10 -262144
-1 -1 12700 1;
#X obj 606 37 metro 100;
#X obj 622 86 snapshot~;
#X floatatom 632 121 5 0 0 0 - - -, f 5;
#X floatatom 21 407 5 0 0 0 - - -, f 5;
#X obj 618 66 bng 15 250 50 0 empty empty empty 17 7 0 10 -262144 -1
-1;
#X msg -2 356 0;
#X text 586 12 debugging snapshot land;
#X obj 1154 49 osc~ 440;
#X obj 1153 106 dac~;
#X obj 0 75 print;
#X obj 3 497 osc~;
#X obj 6 481;
#X obj 14 677 snapshot~;
#X obj 28 654 metro 100;
#X obj 34 632 bng 15 250 50 0 empty empty empty 17 7 0 10 -262144 -1
-1;
#X floatatom 16 709 5 0 0 0 - - -, f 5;
#X obj 63 708 max;
#X floatatom 55 749 5 0 0 0 - - -, f 5;
#X floatatom 9 786 5 0 0 0 - - -, f 5;
#X obj 19 754 max;
#X floatatom 48 487 5 0 0 0 - - -, f 5;
#X obj 57 461 / 10;
#X obj 774 98 s nc;
#X obj 146 433 mtof;
#X floatatom 131 467 5 0 0 0 - - -, f 5;
#X obj 145 550 /~;
#X obj 185 532 r nc;
#X obj 187 574 r lcv;
#X obj 139 578 r rcv;
#X obj 174 607 *~;
#X obj 119 610 *~;
#X obj 146 384 +;
#X obj 143 527 *~;
#X obj 135 843 dac~;
#X floatatom 184 443 5 0 0 0 - - -, f 5;
#X floatatom 167 361 5 0 0 0 - - -, f 5;
#X floatatom 146 412 5 0 0 0 - - -, f 5;
#X obj 128 502 osc~;
#X obj 139 682 snapshot~;
#X obj 153 659 metro 100;
#X obj 159 637 bng 15 250 50 0 empty empty empty 17 7 0 10 -262144
-1 -1;
#X floatatom 141 714 5 0 0 0 - - -, f 5;
#X obj 188 713 max;
#X floatatom 180 754 5 0 0 0 - - -, f 5;
#X floatatom 134 791 5 0 0 0 - - -, f 5;
#X obj 144 759 max;
#X floatatom 173 492 5 0 0 0 - - -, f 5;
#X obj 182 466 / 10;
#X obj 252 433 mtof;
#X floatatom 237 467 5 0 0 0 - - -, f 5;
#X obj 251 550 /~;
#X obj 291 532 r nc;
#X obj 293 574 r lcv;
#X obj 245 578 r rcv;
#X obj 280 607 *~;
#X obj 225 610 *~;
#X obj 252 384 +;
#X obj 249 527 *~;
#X obj 254 850 dac~;
#X floatatom 290 443 5 0 0 0 - - -, f 5;
#X floatatom 273 361 5 0 0 0 - - -, f 5;
#X floatatom 252 412 5 0 0 0 - - -, f 5;
#X obj 234 502 osc~;
#X obj 245 682 snapshot~;
#X obj 259 659 metro 100;
#X obj 265 637 bng 15 250 50 0 empty empty empty 17 7 0 10 -262144
-1 -1;
#X floatatom 247 714 5 0 0 0 - - -, f 5;
#X obj 294 713 max;
#X floatatom 286 754 5 0 0 0 - - -, f 5;
#X floatatom 240 791 5 0 0 0 - - -, f 5;
#X obj 250 759 max;
#X floatatom 279 492 5 0 0 0 - - -, f 5;
#X obj 288 466 / 10;
#X obj 364 434 mtof;
#X floatatom 349 468 5 0 0 0 - - -, f 5;
#X obj 363 551 /~;
#X obj 403 533 r nc;
#X obj 405 575 r lcv;
#X obj 357 579 r rcv;
#X obj 392 608 *~;
#X obj 337 611 *~;
#X obj 364 385 +;
#X obj 361 528 *~;
#X obj 357 853 dac~;
#X floatatom 402 444 5 0 0 0 - - -, f 5;
#X floatatom 385 362 5 0 0 0 - - -, f 5;
#X floatatom 364 413 5 0 0 0 - - -, f 5;
#X obj 346 503 osc~;
#X obj 357 683 snapshot~;
#X obj 371 660 metro 100;
#X obj 377 638 bng 15 250 50 0 empty empty empty 17 7 0 10 -262144
-1 -1;
#X floatatom 359 715 5 0 0 0 - - -, f 5;
#X obj 406 714 max;
#X floatatom 398 755 5 0 0 0 - - -, f 5;
#X floatatom 352 792 5 0 0 0 - - -, f 5;
#X obj 362 760 max;
#X floatatom 391 493 5 0 0 0 - - -, f 5;
#X obj 400 467 / 10;
#X obj 471 431 mtof;
#X floatatom 456 465 5 0 0 0 - - -, f 5;
#X obj 470 548 /~;
#X obj 510 530 r nc;
#X obj 512 572 r lcv;
#X obj 464 576 r rcv;
#X obj 499 605 *~;
#X obj 444 608 *~;
#X obj 469 381 +;
#X obj 468 525 *~;
#X obj 460 856 dac~;
#X floatatom 509 441 5 0 0 0 - - -, f 5;
#X floatatom 492 359 5 0 0 0 - - -, f 5;
#X floatatom 471 410 5 0 0 0 - - -, f 5;
#X obj 453 500 osc~;
#X obj 464 680 snapshot~;
#X obj 478 657 metro 100;
#X obj 484 635 bng 15 250 50 0 empty empty empty 17 7 0 10 -262144
-1 -1;
#X floatatom 466 712 5 0 0 0 - - -, f 5;
#X obj 513 711 max;
#X floatatom 505 752 5 0 0 0 - - -, f 5;
#X floatatom 459 789 5 0 0 0 - - -, f 5;
#X obj 469 757 max;
#X floatatom 498 490 5 0 0 0 - - -, f 5;
#X obj 507 464 / 10;
#X obj 582 431 mtof;
#X floatatom 567 465 5 0 0 0 - - -, f 5;
#X obj 581 548 /~;
#X obj 621 530 r nc;
#X obj 623 572 r lcv;
#X obj 575 576 r rcv;
#X obj 610 605 *~;
#X obj 555 608 *~;
#X obj 582 382 +;
#X obj 579 525 *~;
#X obj 576 853 dac~;
#X floatatom 620 441 5 0 0 0 - - -, f 5;
#X floatatom 605 356 5 0 0 0 - - -, f 5;
#X floatatom 582 410 5 0 0 0 - - -, f 5;
#X obj 564 500 osc~;
#X obj 575 680 snapshot~;
#X obj 589 657 metro 100;
#X obj 595 635 bng 15 250 50 0 empty empty empty 17 7 0 10 -262144
-1 -1;
#X floatatom 577 712 5 0 0 0 - - -, f 5;
#X obj 624 711 max;
#X floatatom 616 752 5 0 0 0 - - -, f 5;
#X floatatom 570 789 5 0 0 0 - - -, f 5;
#X obj 580 757 max;
#X floatatom 609 490 5 0 0 0 - - -, f 5;
#X obj 618 464 / 10;
#X obj 801 5 bng 15 250 50 0 empty empty empty 17 7 0 10 -262144 -1
-1;
#X obj 695 428 mtof;
#X floatatom 680 462 5 0 0 0 - - -, f 5;
#X obj 694 545 /~;
#X obj 734 527 r nc;
#X obj 736 569 r lcv;
#X obj 688 573 r rcv;
#X obj 725 604 *~;
#X obj 668 605 *~;
#X obj 695 379 +;
#X obj 692 522 *~;
#X obj 695 838 dac~;
#X floatatom 733 438 5 0 0 0 - - -, f 5;
#X floatatom 716 356 5 0 0 0 - - -, f 5;
#X floatatom 695 407 5 0 0 0 - - -, f 5;
#X obj 677 497 osc~;
#X obj 680 481;
#X obj 688 677 snapshot~;
#X obj 702 654 metro 100;
#X obj 708 632 bng 15 250 50 0 empty empty empty 17 7 0 10 -262144
-1 -1;
#X floatatom 690 709 5 0 0 0 - - -, f 5;
#X obj 737 708 max;
#X floatatom 729 749 5 0 0 0 - - -, f 5;
#X floatatom 683 786 5 0 0 0 - - -, f 5;
#X obj 693 754 max;
#X floatatom 722 487 5 0 0 0 - - -, f 5;
#X obj 731 461 / 10;
#X obj 820 433 mtof;
#X floatatom 805 467 5 0 0 0 - - -, f 5;
#X obj 819 550 /~;
#X obj 859 532 r nc;
#X obj 861 574 r lcv;
#X obj 813 578 r rcv;
#X obj 848 607 *~;
#X obj 793 610 *~;
#X obj 820 384 +;
#X obj 817 527 *~;
#X floatatom 858 443 5 0 0 0 - - -, f 5;
#X floatatom 841 361 5 0 0 0 - - -, f 5;
#X floatatom 820 412 5 0 0 0 - - -, f 5;
#X obj 802 502 osc~;
#X obj 813 682 snapshot~;
#X obj 827 659 metro 100;
#X obj 833 637 bng 15 250 50 0 empty empty empty 17 7 0 10 -262144
-1 -1;
#X floatatom 815 714 5 0 0 0 - - -, f 5;
#X obj 862 713 max;
#X floatatom 854 754 5 0 0 0 - - -, f 5;
#X floatatom 808 791 5 0 0 0 - - -, f 5;
#X obj 818 759 max;
#X floatatom 847 492 5 0 0 0 - - -, f 5;
#X obj 856 466 / 10;
#X obj 926 433 mtof;
#X floatatom 911 467 5 0 0 0 - - -, f 5;
#X obj 925 550 /~;
#X obj 965 532 r nc;
#X obj 967 574 r lcv;
#X obj 919 578 r rcv;
#X obj 954 607 *~;
#X obj 899 610 *~;
#X obj 926 384 +;
#X obj 923 527 *~;
#X floatatom 964 443 5 0 0 0 - - -, f 5;
#X floatatom 947 361 5 0 0 0 - - -, f 5;
#X floatatom 926 412 5 0 0 0 - - -, f 5;
#X obj 908 502 osc~;
#X obj 919 682 snapshot~;
#X obj 933 659 metro 100;
#X obj 939 637 bng 15 250 50 0 empty empty empty 17 7 0 10 -262144
-1 -1;
#X floatatom 921 714 5 0 0 0 - - -, f 5;
#X obj 968 713 max;
#X floatatom 960 754 5 0 0 0 - - -, f 5;
#X floatatom 914 791 5 0 0 0 - - -, f 5;
#X obj 924 759 max;
#X floatatom 953 492 5 0 0 0 - - -, f 5;
#X obj 962 466 / 10;
#X obj 1038 434 mtof;
#X floatatom 1023 468 5 0 0 0 - - -, f 5;
#X obj 1037 551 /~;
#X obj 1077 533 r nc;
#X obj 1079 575 r lcv;
#X obj 1031 579 r rcv;
#X obj 1066 608 *~;
#X obj 1011 611 *~;
#X obj 1038 385 +;
#X obj 1035 528 *~;
#X floatatom 1076 444 5 0 0 0 - - -, f 5;
#X floatatom 1059 362 5 0 0 0 - - -, f 5;
#X floatatom 1038 413 5 0 0 0 - - -, f 5;
#X obj 1020 503 osc~;
#X obj 1031 683 snapshot~;
#X obj 1045 660 metro 100;
#X obj 1051 638 bng 15 250 50 0 empty empty empty 17 7 0 10 -262144
-1 -1;
#X floatatom 1033 715 5 0 0 0 - - -, f 5;
#X obj 1080 714 max;
#X floatatom 1072 755 5 0 0 0 - - -, f 5;
#X floatatom 1026 792 5 0 0 0 - - -, f 5;
#X obj 1036 760 max;
#X floatatom 1065 493 5 0 0 0 - - -, f 5;
#X obj 1074 467 / 10;
#X obj 1145 431 mtof;
#X floatatom 1130 465 5 0 0 0 - - -, f 5;
#X obj 1144 548 /~;
#X obj 1184 530 r nc;
#X obj 1186 572 r lcv;
#X obj 1138 576 r rcv;
#X obj 1173 605 *~;
#X obj 1118 608 *~;
#X obj 1143 381 +;
#X obj 1142 525 *~;
#X floatatom 1183 441 5 0 0 0 - - -, f 5;
#X floatatom 1166 359 5 0 0 0 - - -, f 5;
#X floatatom 1145 410 5 0 0 0 - - -, f 5;
#X obj 1127 500 osc~;
#X obj 1138 680 snapshot~;
#X obj 1152 657 metro 100;
#X obj 1158 635 bng 15 250 50 0 empty empty empty 17 7 0 10 -262144
-1 -1;
#X floatatom 1140 712 5 0 0 0 - - -, f 5;
#X obj 1187 711 max;
#X floatatom 1179 752 5 0 0 0 - - -, f 5;
#X floatatom 1133 789 5 0 0 0 - - -, f 5;
#X obj 1143 757 max;
#X floatatom 1172 490 5 0 0 0 - - -, f 5;
#X obj 1181 464 / 10;
#X obj 1256 431 mtof;
#X floatatom 1241 465 5 0 0 0 - - -, f 5;
#X obj 1255 548 /~;
#X obj 1295 530 r nc;
#X obj 1297 572 r lcv;
#X obj 1249 576 r rcv;
#X obj 1284 605 *~;
#X obj 1229 608 *~;
#X obj 1256 382 +;
#X obj 1253 525 *~;
#X floatatom 1294 441 5 0 0 0 - - -, f 5;
#X floatatom 1279 356 5 0 0 0 - - -, f 5;
#X floatatom 1256 411 5 0 0 0 - - -, f 5;
#X obj 1238 500 osc~;
#X obj 1249 680 snapshot~;
#X obj 1263 657 metro 100;
#X obj 1269 635 bng 15 250 50 0 empty empty empty 17 7 0 10 -262144
-1 -1;
#X floatatom 1251 712 5 0 0 0 - - -, f 5;
#X obj 1298 711 max;
#X floatatom 1290 752 5 0 0 0 - - -, f 5;
#X floatatom 1244 789 5 0 0 0 - - -, f 5;
#X obj 1254 757 max;
#X floatatom 1283 490 5 0 0 0 - - -, f 5;
#X obj 1292 464 / 10;
#X obj 817 838 dac~;
#X obj 923 838 dac~;
#X obj 1035 839 dac~;
#X obj 1142 836 dac~;
#X obj 1253 836 dac~;
#X obj 459 221 osc~;
#X floatatom 489 277 5 0 0 0 - - -, f 5;
#X obj 487 250 snapshot~;
#X obj 518 223 metro 100;
#X obj 515 200 bng 15 250 50 0 empty empty empty 17 7 0 10 -262144
-1 -1;
#X floatatom 409 227 5 0 0 0 - - -, f 5;
#X obj 417 295 dac~;
#X obj 480 193 * 500;
#X obj 426 265 *~;
#X msg 454 245 0.1;
#X obj 639 229 osc~;
#X floatatom 669 285 5 0 0 0 - - -, f 5;
#X obj 667 258 snapshot~;
#X obj 698 231 metro 100;
#X obj 695 208 bng 15 250 50 0 empty empty empty 17 7 0 10 -262144
-1 -1;
#X floatatom 589 235 5 0 0 0 - - -, f 5;
#X obj 660 201 * 500;
#X obj 606 273 *~;
#X msg 634 253 0.1;
#X floatatom 481 102 5 0 0 0 - - -, f 5;
#X obj 194 417 r a1;
#X obj 300 418 r a2;
#X obj 413 419 r a3;
#X obj 519 416 r a4;
#X obj 630 416 r a5;
#X obj 744 413 r a6;
#X obj 869 418 r a7;
#X obj 975 419 r a8;
#X obj 1087 419 r a9;
#X obj 1193 416 r a10;
#X obj 1305 416 r a11:;
#X obj 1083 192 metro 1000;
#X obj 1078 149 bng 15 250 50 0 empty empty empty 17 7 0 10 -262144
-1 -1;
#X msg 118 361 7;
#X msg 226 358 14;
#X msg 330 357 21;
#X msg 437 358 28;
#X msg 548 358 35;
#X msg 674 352 42;
#X msg 789 354 49;
#X msg 899 355 56;
#X msg 1005 346 62;
#X msg 1121 349 70;
#X msg 1233 352 77;
#X msg 776 68 24;
#X connect 0 0 2 0;
#X connect 0 0 87 0;
#X connect 1 0 2 0;
#X connect 1 0 87 0;
#X connect 2 0 36 0;
#X connect 3 0 4 0;
#X connect 4 0 88 0;
#X connect 4 0 89 0;
#X connect 5 0 1 0;
#X connect 6 0 11 0;
#X connect 6 0 12 0;
#X connect 7 0 6 1;
#X connect 8 0 11 1;
#X connect 9 0 12 1;
#X connect 11 0 52 1;
#X connect 12 0 90 0;
#X connect 12 0 52 0;
#X connect 13 0 1 0;
#X connect 17 0 81 0;
#X connect 30 0 6 0;
#X connect 31 0 75 0;
#X connect 32 0 56 0;
#X connect 32 0 422 0;
#X connect 32 0 58 0;
#X connect 32 0 409 0;
#X connect 33 0 83 0;
#X connect 33 0 411 0;
#X connect 33 0 412 0;
#X connect 33 0 413 0;
#X connect 33 0 414 0;
#X connect 33 0 415 0;
#X connect 33 0 66 0;
#X connect 34 0 416 0;
#X connect 34 0 417 0;
#X connect 34 0 418 0;
#X connect 34 0 419 0;
#X connect 34 0 420 0;
#X connect 34 0 421 0;
#X connect 34 0 67 0;
#X connect 35 0 53 0;
#X connect 36 0 40 0;
#X connect 36 0 54 0;
#X connect 36 1 41 0;
#X connect 36 2 42 0;
#X connect 36 3 43 0;
#X connect 36 4 44 0;
#X connect 36 5 45 0;
#X connect 36 6 46 0;
#X connect 36 7 47 0;
#X connect 36 8 48 0;
#X connect 36 9 49 0;
#X connect 36 10 50 0;
#X connect 36 11 51 0;
#X connect 36 12 37 0;
#X connect 36 12 385 0;
#X connect 36 13 38 0;
#X connect 36 13 394 0;
#X connect 36 15 397 0;
#X connect 37 0 15 0;
#X connect 37 0 77 0;
#X connect 38 0 14 0;
#X connect 38 0 76 0;
#X connect 39 0 16 0;
#X connect 40 0 21 0;
#X connect 41 0 18 0;
#X connect 42 0 19 0;
#X connect 43 0 20 0;
#X connect 44 0 22 0;
#X connect 45 0 23 0;
#X connect 46 0 24 0;
#X connect 47 0 25 0;
#X connect 48 0 26 0;
#X connect 49 0 27 0;
#X connect 50 0 28 0;
#X connect 51 0 29 0;
#X connect 53 0 99 0;
#X connect 54 0 55 0;
#X connect 56 0 31 0;
#X connect 57 0 59 0;
#X connect 58 0 57 0;
#X connect 60 0 74 0;
#X connect 61 0 113 0;
#X connect 62 0 138 0;
#X connect 63 0 163 0;
#X connect 64 0 188 0;
#X connect 65 0 213 0;
#X connect 66 0 83 0;
#X connect 66 0 411 0;
#X connect 66 0 412 0;
#X connect 66 0 413 0;
#X connect 66 0 414 0;
#X connect 66 0 415 0;
#X connect 67 0 416 0;
#X connect 67 0 417 0;
#X connect 67 0 418 0;
#X connect 67 0 419 0;
#X connect 67 0 420 0;
#X connect 67 0 421 0;
#X connect 68 0 239 0;
#X connect 69 0 264 0;
#X connect 70 0 288 0;
#X connect 71 0 312 0;
#X connect 72 0 336 0;
#X connect 73 0 360 0;
#X connect 74 0 17 1;
#X connect 78 0 82 0;
#X connect 79 0 80 0;
#X connect 81 0 3 0;
#X connect 82 0 79 0;
#X connect 83 0 17 0;
#X connect 88 0 30 0;
#X connect 90 0 93 0;
#X connect 91 0 90 0;
#X connect 92 0 91 0;
#X connect 93 0 94 0;
#X connect 94 0 95 0;
#X connect 95 0 94 1;
#X connect 96 0 97 1;
#X connect 97 0 96 0;
#X connect 98 0 30 1;
#X connect 99 0 98 0;
#X connect 101 0 102 0;
#X connect 102 0 115 0;
#X connect 103 0 107 0;
#X connect 103 0 108 0;
#X connect 104 0 103 1;
#X connect 105 0 107 1;
#X connect 106 0 108 1;
#X connect 107 0 111 1;
#X connect 108 0 116 0;
#X connect 108 0 111 0;
#X connect 109 0 114 0;
#X connect 110 0 103 0;
#X connect 112 0 125 0;
#X connect 113 0 109 1;
#X connect 114 0 101 0;
#X connect 115 0 110 0;
#X connect 116 0 119 0;
#X connect 117 0 116 0;
#X connect 118 0 117 0;
#X connect 119 0 120 0;
#X connect 120 0 121 0;
#X connect 121 0 120 1;
#X connect 122 0 123 1;
#X connect 123 0 122 0;
#X connect 124 0 110 1;
#X connect 125 0 124 0;
#X connect 126 0 127 0;
#X connect 127 0 140 0;
#X connect 128 0 132 0;
#X connect 128 0 133 0;
#X connect 129 0 128 1;
#X connect 130 0 132 1;
#X connect 131 0 133 1;
#X connect 132 0 136 1;
#X connect 133 0 141 0;
#X connect 133 0 136 0;
#X connect 134 0 139 0;
#X connect 135 0 128 0;
#X connect 137 0 150 0;
#X connect 138 0 134 1;
#X connect 139 0 126 0;
#X connect 140 0 135 0;
#X connect 141 0 144 0;
#X connect 142 0 141 0;
#X connect 143 0 142 0;
#X connect 144 0 145 0;
#X connect 145 0 146 0;
#X connect 146 0 145 1;
#X connect 147 0 148 1;
#X connect 148 0 147 0;
#X connect 149 0 135 1;
#X connect 150 0 149 0;
#X connect 151 0 152 0;
#X connect 152 0 165 0;
#X connect 153 0 157 0;
#X connect 153 0 158 0;
#X connect 154 0 153 1;
#X connect 155 0 157 1;
#X connect 156 0 158 1;
#X connect 157 0 161 1;
#X connect 158 0 166 0;
#X connect 158 0 161 0;
#X connect 159 0 164 0;
#X connect 160 0 153 0;
#X connect 162 0 175 0;
#X connect 163 0 159 1;
#X connect 164 0 151 0;
#X connect 165 0 160 0;
#X connect 166 0 169 0;
#X connect 167 0 166 0;
#X connect 168 0 167 0;
#X connect 169 0 170 0;
#X connect 170 0 171 0;
#X connect 171 0 170 1;
#X connect 172 0 173 1;
#X connect 173 0 172 0;
#X connect 174 0 160 1;
#X connect 175 0 174 0;
#X connect 176 0 177 0;
#X connect 177 0 190 0;
#X connect 178 0 182 0;
#X connect 178 0 183 0;
#X connect 179 0 178 1;
#X connect 180 0 182 1;
#X connect 181 0 183 1;
#X connect 182 0 186 1;
#X connect 183 0 191 0;
#X connect 183 0 186 0;
#X connect 184 0 189 0;
#X connect 185 0 178 0;
#X connect 187 0 200 0;
#X connect 188 0 184 1;
#X connect 189 0 176 0;
#X connect 190 0 185 0;
#X connect 191 0 194 0;
#X connect 192 0 191 0;
#X connect 193 0 192 0;
#X connect 194 0 195 0;
#X connect 195 0 196 0;
#X connect 196 0 195 1;
#X connect 197 0 198 1;
#X connect 198 0 197 0;
#X connect 199 0 185 1;
#X connect 200 0 199 0;
#X connect 201 0 202 0;
#X connect 202 0 215 0;
#X connect 203 0 207 0;
#X connect 203 0 208 0;
#X connect 204 0 203 1;
#X connect 205 0 207 1;
#X connect 206 0 208 1;
#X connect 207 0 211 1;
#X connect 208 0 216 0;
#X connect 208 0 211 0;
#X connect 209 0 214 0;
#X connect 210 0 203 0;
#X connect 212 0 225 0;
#X connect 213 0 209 1;
#X connect 214 0 201 0;
#X connect 215 0 210 0;
#X connect 216 0 219 0;
#X connect 217 0 216 0;
#X connect 218 0 217 0;
#X connect 219 0 220 0;
#X connect 220 0 221 0;
#X connect 221 0 220 1;
#X connect 222 0 223 1;
#X connect 223 0 222 0;
#X connect 224 0 210 1;
#X connect 225 0 224 0;
#X connect 226 0 422 0;
#X connect 226 0 56 0;
#X connect 226 0 58 0;
#X connect 227 0 228 0;
#X connect 228 0 241 0;
#X connect 228 0 242 0;
#X connect 229 0 233 0;
#X connect 229 0 234 0;
#X connect 230 0 229 1;
#X connect 231 0 233 1;
#X connect 232 0 234 1;
#X connect 233 0 237 1;
#X connect 234 0 237 0;
#X connect 234 0 243 0;
#X connect 235 0 240 0;
#X connect 236 0 229 0;
#X connect 238 0 252 0;
#X connect 239 0 235 1;
#X connect 240 0 227 0;
#X connect 241 0 236 0;
#X connect 243 0 246 0;
#X connect 244 0 243 0;
#X connect 245 0 244 0;
#X connect 246 0 247 0;
#X connect 247 0 248 0;
#X connect 248 0 247 1;
#X connect 249 0 250 1;
#X connect 250 0 249 0;
#X connect 251 0 236 1;
#X connect 252 0 251 0;
#X connect 253 0 254 0;
#X connect 254 0 266 0;
#X connect 255 0 259 0;
#X connect 255 0 260 0;
#X connect 256 0 255 1;
#X connect 257 0 259 1;
#X connect 258 0 260 1;
#X connect 259 0 373 1;
#X connect 260 0 267 0;
#X connect 260 0 373 0;
#X connect 261 0 265 0;
#X connect 262 0 255 0;
#X connect 263 0 276 0;
#X connect 264 0 261 1;
#X connect 265 0 253 0;
#X connect 266 0 262 0;
#X connect 267 0 270 0;
#X connect 268 0 267 0;
#X connect 269 0 268 0;
#X connect 270 0 271 0;
#X connect 271 0 272 0;
#X connect 272 0 271 1;
#X connect 273 0 274 1;
#X connect 274 0 273 0;
#X connect 275 0 262 1;
#X connect 276 0 275 0;
#X connect 277 0 278 0;
#X connect 278 0 290 0;
#X connect 279 0 283 0;
#X connect 279 0 284 0;
#X connect 280 0 279 1;
#X connect 281 0 283 1;
#X connect 282 0 284 1;
#X connect 283 0 374 1;
#X connect 284 0 291 0;
#X connect 284 0 374 0;
#X connect 285 0 289 0;
#X connect 286 0 279 0;
#X connect 287 0 300 0;
#X connect 288 0 285 1;
#X connect 289 0 277 0;
#X connect 290 0 286 0;
#X connect 291 0 294 0;
#X connect 292 0 291 0;
#X connect 293 0 292 0;
#X connect 294 0 295 0;
#X connect 295 0 296 0;
#X connect 296 0 295 1;
#X connect 297 0 298 1;
#X connect 298 0 297 0;
#X connect 299 0 286 1;
#X connect 300 0 299 0;
#X connect 301 0 302 0;
#X connect 302 0 314 0;
#X connect 303 0 307 0;
#X connect 303 0 308 0;
#X connect 304 0 303 1;
#X connect 305 0 307 1;
#X connect 306 0 308 1;
#X connect 307 0 375 1;
#X connect 308 0 315 0;
#X connect 308 0 375 0;
#X connect 309 0 313 0;
#X connect 310 0 303 0;
#X connect 311 0 324 0;
#X connect 312 0 309 1;
#X connect 313 0 301 0;
#X connect 314 0 310 0;
#X connect 315 0 318 0;
#X connect 316 0 315 0;
#X connect 317 0 316 0;
#X connect 318 0 319 0;
#X connect 319 0 320 0;
#X connect 320 0 319 1;
#X connect 321 0 322 1;
#X connect 322 0 321 0;
#X connect 323 0 310 1;
#X connect 324 0 323 0;
#X connect 325 0 326 0;
#X connect 326 0 338 0;
#X connect 327 0 331 0;
#X connect 327 0 332 0;
#X connect 328 0 327 1;
#X connect 329 0 331 1;
#X connect 330 0 332 1;
#X connect 331 0 376 1;
#X connect 332 0 339 0;
#X connect 332 0 376 0;
#X connect 333 0 337 0;
#X connect 334 0 327 0;
#X connect 335 0 348 0;
#X connect 336 0 333 1;
#X connect 337 0 325 0;
#X connect 338 0 334 0;
#X connect 339 0 342 0;
#X connect 340 0 339 0;
#X connect 341 0 340 0;
#X connect 342 0 343 0;
#X connect 343 0 344 0;
#X connect 344 0 343 1;
#X connect 345 0 346 1;
#X connect 346 0 345 0;
#X connect 347 0 334 1;
#X connect 348 0 347 0;
#X connect 349 0 350 0;
#X connect 350 0 362 0;
#X connect 351 0 355 0;
#X connect 351 0 356 0;
#X connect 352 0 351 1;
#X connect 353 0 355 1;
#X connect 354 0 356 1;
#X connect 356 0 363 0;
#X connect 357 0 361 0;
#X connect 358 0 351 0;
#X connect 359 0 372 0;
#X connect 360 0 357 1;
#X connect 361 0 349 0;
#X connect 362 0 358 0;
#X connect 363 0 366 0;
#X connect 364 0 363 0;
#X connect 365 0 364 0;
#X connect 366 0 367 0;
#X connect 367 0 368 0;
#X connect 368 0 367 1;
#X connect 369 0 370 1;
#X connect 370 0 369 0;
#X connect 371 0 358 1;
#X connect 372 0 371 0;
#X connect 378 0 380 0;
#X connect 378 0 386 0;
#X connect 380 0 379 0;
#X connect 381 0 380 0;
#X connect 382 0 381 0;
#X connect 385 0 378 0;
#X connect 385 0 383 0;
#X connect 387 0 386 1;
#X connect 388 0 390 0;
#X connect 388 0 395 0;
#X connect 390 0 389 0;
#X connect 391 0 390 0;
#X connect 392 0 391 0;
#X connect 394 0 388 0;
#X connect 394 0 393 0;
#X connect 396 0 395 1;
#X connect 398 0 112 0;
#X connect 399 0 137 0;
#X connect 400 0 162 0;
#X connect 401 0 187 0;
#X connect 402 0 212 0;
#X connect 403 0 238 0;
#X connect 404 0 263 0;
#X connect 405 0 287 0;
#X connect 406 0 311 0;
#X connect 407 0 335 0;
#X connect 408 0 359 0;
#X connect 409 0 67 0;
#X connect 409 0 66 0;
#X connect 409 0 422 0;
#X connect 410 0 409 0;
#X connect 411 0 109 0;
#X connect 412 0 134 0;
#X connect 413 0 159 0;
#X connect 414 0 184 0;
#X connect 415 0 209 0;
#X connect 416 0 235 0;
#X connect 417 0 261 0;
#X connect 418 0 285 0;
#X connect 419 0 309 0;
#X connect 420 0 333 0;
#X connect 421 0 357 0;
#X connect 422 0 100 0;
