#N canvas 1075 29 843 169 10;
#X obj 343 1001 dac~;
#X obj 335 827 noise~;
#X obj 344 926 lop~;
#X obj 96 685 snapshot~;
#X obj 35 606 bng 15 250 50 0 empty empty empty 17 7 0 10 -262144 -1
-1;
#X floatatom 111 713 5 0 0 0 - - -, f 5;
#X obj 43 663 bng 15 250 50 0 empty empty empty 17 7 0 10 -262144 -1
-1;
#X obj 324 953 *~;
#X obj 35 637 metro 10;
#X obj 109 657 osc~ 0.1;
#X floatatom 114 513 5 0 0 0 - - -, f 5;
#X floatatom 112 631 5 0 0 0 - - -, f 5;
#X obj 117 604 / 1000;
#X floatatom 382 892 5 0 0 0 - - -, f 5;
#X obj 32 479 snapshot~;
#X obj -29 400 bng 15 250 50 0 empty empty empty 17 7 0 10 -262144
-1 -1;
#X floatatom 47 507 5 0 0 0 - - -, f 5;
#X obj -21 457 bng 15 250 50 0 empty empty empty 17 7 0 10 -262144
-1 -1;
#X obj -29 431 metro 10;
#X obj 45 451 osc~ 0.1;
#X floatatom 33 364 5 0 0 0 - - -, f 5;
#X floatatom 48 425 5 0 0 0 - - -, f 5;
#X obj 118 271 snapshot~;
#X obj 57 192 bng 15 250 50 0 empty empty empty 17 7 0 10 -262144 -1
-1;
#X floatatom 133 299 5 0 0 0 - - -, f 5;
#X obj 65 249 bng 15 250 50 0 empty empty empty 17 7 0 10 -262144 -1
-1;
#X obj 57 223 metro 10;
#X obj 131 243 osc~ 0.1;
#X floatatom 134 155 5 0 0 0 - - -, f 5;
#X floatatom 134 217 5 0 0 0 - - -, f 5;
#X obj 139 190 / 1000;
#X obj 78 549 *;
#X floatatom 98 575 5 0 0 0 - - -, f 5;
#X msg 66 292 1000;
#X obj 53 398 /;
#X floatatom 84 366 5 0 0 0 - - -, f 5;
#X obj 89 332 *;
#X obj 439 748 vsl 15 128 50 500 0 0 empty empty empty 0 -9 0 10 -262144
-1 -1 1100 1;
#X obj 406 555 metro 100;
#X obj 404 530 bng 15 250 50 0 empty empty empty 17 7 0 10 -262144
-1 -1;
#X obj 377 631 +;
#X floatatom 413 603 5 0 0 0 - - -, f 5;
#X obj 406 577 bng 15 250 50 0 empty empty empty 17 7 0 10 -262144
-1 -1;
#X obj 579 474 snapshot~;
#X obj 518 395 bng 15 250 50 0 empty empty empty 17 7 0 10 -262144
-1 -1;
#X floatatom 594 502 5 0 0 0 - - -, f 5;
#X obj 526 452 bng 15 250 50 0 empty empty empty 17 7 0 10 -262144
-1 -1;
#X obj 518 426 metro 10;
#X obj 592 446 osc~ 0.1;
#X floatatom 597 302 5 0 0 0 - - -, f 5;
#X floatatom 595 420 5 0 0 0 - - -, f 5;
#X obj 600 393 / 1000;
#X obj 515 268 snapshot~;
#X obj 454 190 bng 15 250 50 0 empty empty empty 17 7 0 10 -262144
-1 -1;
#X floatatom 530 296 5 0 0 0 - - -, f 5;
#X obj 462 247 bng 15 250 50 0 empty empty empty 17 7 0 10 -262144
-1 -1;
#X obj 454 221 metro 10;
#X obj 528 240 osc~ 0.1;
#X floatatom 516 153 5 0 0 0 - - -, f 5;
#X floatatom 531 214 5 0 0 0 - - -, f 5;
#X obj 601 60 snapshot~;
#X obj 540 -19 bng 15 250 50 0 empty empty empty 17 7 0 10 -262144
-1 -1;
#X floatatom 616 88 5 0 0 0 - - -, f 5;
#X obj 548 38 bng 15 250 50 0 empty empty empty 17 7 0 10 -262144 -1
-1;
#X obj 540 12 metro 10;
#X obj 614 32 osc~ 0.1;
#X floatatom 617 -56 5 0 0 0 - - -, f 5;
#X floatatom 617 6 5 0 0 0 - - -, f 5;
#X obj 622 -21 / 1000;
#X obj 561 338 *;
#X floatatom 581 364 5 0 0 0 - - -, f 5;
#X msg 549 81 1000;
#X obj 536 187 /;
#X floatatom 567 155 5 0 0 0 - - -, f 5;
#X obj 572 121 *;
#X obj 497 829 noise~;
#X obj 506 928 lop~;
#X floatatom 544 894 5 0 0 0 - - -, f 5;
#X obj 601 750 vsl 15 128 50 500 0 0 empty empty empty 0 -9 0 10 -262144
-1 -1 0 1;
#X obj 568 557 metro 100;
#X obj 566 532 bng 15 250 50 0 empty empty empty 17 7 0 10 -262144
-1 -1;
#X obj 539 633 +;
#X floatatom 575 605 5 0 0 0 - - -, f 5;
#X obj 568 579 bng 15 250 50 0 empty empty empty 17 7 0 10 -262144
-1 -1;
#X obj 440 957 *~;
#X obj 536 792 bng 15 250 50 0 empty empty empty 17 7 0 10 -262144
-1 -1;
#X connect 1 0 2 0;
#X connect 2 0 7 1;
#X connect 3 0 5 0;
#X connect 4 0 8 0;
#X connect 5 0 7 0;
#X connect 6 0 3 0;
#X connect 7 0 0 0;
#X connect 8 0 6 0;
#X connect 9 0 3 0;
#X connect 10 0 31 1;
#X connect 11 0 9 0;
#X connect 12 0 11 0;
#X connect 13 0 2 1;
#X connect 14 0 16 0;
#X connect 15 0 18 0;
#X connect 16 0 31 0;
#X connect 17 0 14 0;
#X connect 17 0 10 0;
#X connect 18 0 17 0;
#X connect 19 0 14 0;
#X connect 20 0 34 0;
#X connect 21 0 19 0;
#X connect 22 0 24 0;
#X connect 23 0 26 0;
#X connect 24 0 36 1;
#X connect 25 0 22 0;
#X connect 25 0 33 0;
#X connect 25 0 20 0;
#X connect 26 0 25 0;
#X connect 27 0 22 0;
#X connect 28 0 30 0;
#X connect 29 0 27 0;
#X connect 30 0 29 0;
#X connect 31 0 32 0;
#X connect 32 0 12 0;
#X connect 33 0 36 0;
#X connect 34 0 21 0;
#X connect 35 0 34 1;
#X connect 36 0 35 0;
#X connect 37 0 13 0;
#X connect 37 0 40 0;
#X connect 38 0 42 0;
#X connect 39 0 38 0;
#X connect 40 0 37 0;
#X connect 41 0 40 1;
#X connect 42 0 41 0;
#X connect 43 0 45 0;
#X connect 44 0 47 0;
#X connect 45 0 84 0;
#X connect 46 0 43 0;
#X connect 47 0 46 0;
#X connect 48 0 43 0;
#X connect 49 0 69 1;
#X connect 50 0 48 0;
#X connect 51 0 50 0;
#X connect 52 0 54 0;
#X connect 53 0 56 0;
#X connect 54 0 69 0;
#X connect 55 0 52 0;
#X connect 55 0 49 0;
#X connect 56 0 55 0;
#X connect 57 0 52 0;
#X connect 58 0 72 0;
#X connect 59 0 57 0;
#X connect 60 0 62 0;
#X connect 61 0 64 0;
#X connect 62 0 74 1;
#X connect 63 0 60 0;
#X connect 63 0 71 0;
#X connect 63 0 58 0;
#X connect 64 0 63 0;
#X connect 65 0 60 0;
#X connect 66 0 68 0;
#X connect 67 0 65 0;
#X connect 68 0 67 0;
#X connect 69 0 70 0;
#X connect 70 0 51 0;
#X connect 71 0 74 0;
#X connect 72 0 59 0;
#X connect 73 0 72 1;
#X connect 74 0 73 0;
#X connect 75 0 76 0;
#X connect 76 0 84 1;
#X connect 77 0 76 1;
#X connect 78 0 77 0;
#X connect 79 0 83 0;
#X connect 80 0 79 0;
#X connect 81 0 78 0;
#X connect 82 0 81 1;
#X connect 83 0 82 0;
#X connect 84 0 0 1;
#X connect 85 0 75 0;
